# xmcd
#
# Track frame offsets: 
#        150
#        12127
#        25909
#        38361
#        48830
#        60626
#        72473
#        83813
#        92883
#        104091
#        117087
#        127279
#        139529
#        155540
#        168280
#        179679
#        194067
#        204446
#        216586
#        227040
#        240293
#        250518
#        264899
#
# Disc length: 3682 seconds
#
# Revision: 1
# Processed by: cddbd v1.5.2PL0 Copyright (c) Steve Scherf et al.
# Submitted via: ExactAudioCopyFreeDBPlugin 1.0
#
DISCID=400e6017
DTITLE=Charley Pride - The Sensational Charley Pride and Just Plain Char
DTITLE=ley
DYEAR=2015
DGENRE=Country
TTITLE0=Lousiana Man
TTITLE1=She's Still Got A Hold On You
TTITLE2=Let The Chips Fall
TTITLE3=Come On Home And Sing The Blues To Daddy
TTITLE4=Never More Than I
TTITLE5=Let Me Live Again
TTITLE6=Take Care Of The Little Things
TTITLE7=Even After Everything She's Done
TTITLE8=(It's Just A Matter Of) Making Up My Mind
TTITLE9=It's The Little Things
TTITLE10=Billy Bayou
TTITLE11=We Had All The Good Things Going
TTITLE12=Me And Bobby McGee
TTITLE13=A Good Chance Of Tear-Fall Tonight
TTITLE14=One Time
TTITLE15=(I'm So) Afraid Of Losing You Again
TTITLE16=A Brand New Bed Of Roses
TTITLE17=That's Why I Love You So Much
TTITLE18=If You Had Only Taken The Time
TTITLE19=Gone, Gone, Gone
TTITLE20=Happy Street
TTITLE21=I'm A Lonesome Fugitive
TTITLE22=It's All Right
EXTD=
EXTT0=
EXTT1=
EXTT2=
EXTT3=
EXTT4=
EXTT5=
EXTT6=
EXTT7=
EXTT8=
EXTT9=
EXTT10=
EXTT11=
EXTT12=
EXTT13=
EXTT14=
EXTT15=
EXTT16=
EXTT17=
EXTT18=
EXTT19=
EXTT20=
EXTT21=
EXTT22=
PLAYORDER=
